VIDEO INFO:


Format                           : AVI
Format/Info                      : Audio Video Interleave
Format profile                   : OpenDML
Format settings                  : rec
File size                        : 696 MiB
Duration                         : 1h 21mn
Overall bit rate                 : 1 193 Kbps
Writing application              : AVI-Mux GUI 1.17.7, Aug  8 2006  20:59:17

Video
ID                               : 0
Format                           : MPEG-4 Visual
Format profile                   : Advanced Simple@L5
Format settings, BVOP            : 2
Format settings, QPel            : No
Format settings, GMC             : No warppoints
Format settings, Matrix          : Default (MPEG)
Codec ID                         : XVID
Codec ID/Hint                    : XviD
Duration                         : 1h 21mn
Bit rate                         : 1 074 Kbps
Width                            : 640 pixels
Height                           : 352 pixels
Display aspect ratio             : 16:9
Frame rate                       : 23.976 fps
Color space                      : YUV
Chroma subsampling               : 4:2:0
Bit depth                        : 8 bits
Scan type                        : Progressive
Compression mode                 : Lossy
Bits/(Pixel*Frame)               : 0.199
Stream size                      : 626 MiB (90%)
Writing library                  : XviD 1.2.1 (UTC 2008-12-04)

Audio
ID                               : 1
Format                           : MPEG Audio
Format version                   : Version 1
Format profile                   : Layer 3
Mode                             : Joint stereo
Mode extension                   : MS Stereo
Codec ID                         : 55
Codec ID/Hint                    : MP3
Duration                         : 1h 21mn
Bit rate mode                    : Variable
Bit rate                         : 111 Kbps
Nominal bit rate                 : 120 Kbps
Channel(s)                       : 2 channels
Sampling rate                    : 48.0 KHz
Compression mode                 : Lossy
Stream size                      : 64.6 MiB (9%)
Alignment                        : Aligned on interleaves
Interleave, duration             : 24 ms (0.58 video frame)
Interleave, preload duration     : 76 ms
Writing library                  : LAME3.98a
Encoding settings                : -m j -V 4 -q 3 -lowpass 17 --abr 120

Text
ID                               : 2
Stream size                      : 66.6 KiB (0%)

--------------------------------------

Thriller, Drama (2011)

82 Minuten

Regie: C.S Drury
Met: John Carlo, Ashley C. Williams

Spannend drama/thriller waarbij een jong koppel op reis in de greep wordt genomen door een wereldwijde benzinecrisis. Ze worden hierdoor beperkt in hun bewegingsvrijheid omdat ook de electriciteitsvoorziening zwaar te kampen krijgt met de crisis. De benzinecrisis leidt op grote schaal tot voedseltekorten waardoor opstanden, en prijsstijgingen het gevolg zijn. Dell ziet één uitweg en dat is back to basics en gewoon overleven. Piper wil niets liever dan deze dramatische omstandigheden ontvluchten. Gedurende de gehele film lopen zowel van Piper als Dell de emoties hoog op. Beiden kiezen er uiteindelijk voor om alles te ontvluchten maar zullen ze beiden dezelfde weg volgen?

-Ondertiteling (nederlands) in film met de mogelijkheid deze aan/uit te zetten.